# Blender v2.90.1 OBJ File: 'propeller.blend'
# www.blender.org
mtllib propeller.mtl
o awionetka_Mesh
v -0.000026 0.001324 0.001441
v -0.000979 0.000907 0.001451
v -0.000554 0.000498 0.003313
v -0.000025 0.000726 0.003311
v -0.000979 0.000907 0.001451
v -0.001394 -0.000071 0.001458
v -0.000781 -0.000052 0.003327
v -0.000554 0.000498 0.003313
v -0.000979 -0.001049 0.001465
v -0.000554 -0.000583 0.003323
v -0.000979 -0.001049 0.001465
v -0.000026 -0.001466 0.001474
v -0.000025 -0.000811 0.003324
v -0.000554 -0.000583 0.003323
v 0.000523 -0.000583 0.003323
v 0.000949 -0.001049 0.001465
v 0.000750 -0.000052 0.003327
v 0.000523 -0.000583 0.003323
v 0.000949 -0.001049 0.001465
v 0.001364 -0.000071 0.001458
v 0.000523 0.000498 0.003313
v 0.000949 0.000907 0.001451
v 0.000523 0.000498 0.003313
v 0.000949 0.000907 0.001451
v -0.000025 0.001391 0.000095
v -0.000951 0.000955 0.000099
v -0.000951 0.000955 0.000099
v -0.001329 -0.000070 0.000114
v -0.000951 -0.001113 0.000108
v -0.000951 -0.001113 0.000108
v -0.000025 -0.001549 0.000112
v 0.000921 -0.001113 0.000108
v 0.000921 -0.001113 0.000108
v 0.001298 -0.000070 0.000114
v 0.000921 0.000955 0.000099
v 0.000921 0.000955 0.000099
v -0.000015 -0.000043 0.004288
v -0.000015 -0.000043 0.004288
v -0.000015 -0.000043 0.004288
v -0.000015 -0.000043 0.004288
v 0.005741 -0.008952 0.000968
v 0.005495 -0.009138 0.000774
v 0.004852 -0.008229 0.000532
v 0.005211 -0.007755 0.001234
v 0.004682 -0.008349 0.000446
v 0.005400 -0.009195 0.000779
v 0.004663 -0.008296 0.000632
v 0.004682 -0.008349 0.000446
v 0.005400 -0.009195 0.000779
v 0.005400 -0.009170 0.000852
v 0.005042 -0.007824 0.001334
v 0.005627 -0.008966 0.001045
v 0.005193 -0.007704 0.001419
v 0.005722 -0.008907 0.001059
v 0.005722 -0.008907 0.001059
v 0.005193 -0.007704 0.001419
v 0.003529 -0.006159 0.000558
v 0.004077 -0.005756 0.001342
v 0.003321 -0.006298 0.000475
v 0.003321 -0.006279 0.000719
v 0.003321 -0.006298 0.000475
v 0.003869 -0.005856 0.001521
v 0.004096 -0.005716 0.001605
v 0.004096 -0.005716 0.001605
v 0.000372 -0.001030 0.000913
v 0.000807 -0.000805 0.001123
v 0.000277 -0.001140 0.000960
v 0.000353 -0.001131 0.001073
v 0.000277 -0.001140 0.000960
v 0.000788 -0.000888 0.001282
v 0.000882 -0.000796 0.001236
v 0.000882 -0.000796 0.001236
v 0.005627 -0.008966 0.001045
v 0.005400 -0.009170 0.000852
v 0.005495 -0.009138 0.000774
v 0.005741 -0.008952 0.000968
v 0.005722 -0.008907 0.001059
v 0.005400 -0.009195 0.000779
v -0.005772 0.008867 0.000968
v -0.005526 0.009053 0.000774
v -0.004884 0.008143 0.000532
v -0.005242 0.007671 0.001234
v -0.004713 0.008264 0.000446
v -0.005432 0.009110 0.000779
v -0.004694 0.008211 0.000632
v -0.004713 0.008264 0.000446
v -0.005432 0.009110 0.000779
v -0.005432 0.009085 0.000852
v -0.005073 0.007739 0.001334
v -0.005659 0.008880 0.001045
v -0.005223 0.007618 0.001419
v -0.005753 0.008822 0.001059
v -0.005753 0.008822 0.001059
v -0.005223 0.007618 0.001419
v -0.003560 0.006074 0.000558
v -0.004108 0.005671 0.001342
v -0.003352 0.006214 0.000475
v -0.003352 0.006194 0.000719
v -0.003352 0.006214 0.000475
v -0.003900 0.005770 0.001521
v -0.004127 0.005631 0.001605
v -0.004127 0.005631 0.001605
v -0.000403 0.000945 0.000913
v -0.000838 0.000720 0.001123
v -0.000308 0.001055 0.000960
v -0.000384 0.001046 0.001073
v -0.000308 0.001055 0.000960
v -0.000819 0.000802 0.001282
v -0.000914 0.000711 0.001236
v -0.000914 0.000711 0.001236
v -0.005659 0.008880 0.001045
v -0.005432 0.009085 0.000852
v -0.005526 0.009053 0.000774
v -0.005772 0.008867 0.000968
v -0.005753 0.008822 0.001059
v -0.005432 0.009110 0.000779
v -0.000951 0.000955 0.000099
v -0.000025 0.001391 0.000095
v -0.000018 -0.000077 0.000106
v -0.001329 -0.000070 0.000114
v -0.000951 -0.001113 0.000108
v -0.000025 -0.001549 0.000112
v 0.000921 -0.001113 0.000108
v 0.001298 -0.000070 0.000114
v 0.000921 0.000955 0.000099
vt 0.910300 0.736800
vt 0.898800 0.735900
vt 0.904100 0.714200
vt 0.910300 0.715500
vt 0.912600 0.691900
vt 0.924100 0.690800
vt 0.925200 0.712000
vt 0.918700 0.713500
vt 0.935800 0.690700
vt 0.931500 0.712900
vt 0.877600 0.717700
vt 0.889100 0.717000
vt 0.889100 0.738300
vt 0.882800 0.739600
vt 0.895500 0.739600
vt 0.900700 0.717700
vt 0.939700 0.714500
vt 0.946000 0.713600
vt 0.950300 0.735800
vt 0.938700 0.735700
vt 0.933200 0.713000
vt 0.927100 0.734600
vt 0.916700 0.714200
vt 0.922000 0.735900
vt 0.910300 0.751600
vt 0.898800 0.751100
vt 0.911000 0.676700
vt 0.923300 0.676100
vt 0.935800 0.675400
vt 0.877600 0.702400
vt 0.889100 0.702000
vt 0.900800 0.702400
vt 0.950300 0.751100
vt 0.937800 0.750400
vt 0.925500 0.749800
vt 0.922000 0.751100
vt 0.910400 0.701800
vt 0.925800 0.725500
vt 0.889200 0.751800
vt 0.940300 0.701000
vt 0.925000 0.545300
vt 0.929000 0.544900
vt 0.931700 0.557200
vt 0.921900 0.559800
vt 0.934200 0.556900
vt 0.930100 0.544700
vt 0.940900 0.559100
vt 0.938900 0.558300
vt 0.943900 0.546400
vt 0.944700 0.546700
vt 0.950800 0.562000
vt 0.948600 0.547600
vt 0.953100 0.562300
vt 0.949800 0.547500
vt 0.924000 0.545800
vt 0.919800 0.560400
vt 0.932500 0.584500
vt 0.921100 0.585400
vt 0.935400 0.584300
vt 0.939400 0.586000
vt 0.936700 0.585600
vt 0.951000 0.587500
vt 0.954100 0.587700
vt 0.918200 0.585700
vt 0.931800 0.651600
vt 0.925900 0.651300
vt 0.933400 0.651100
vt 0.939600 0.652200
vt 0.938100 0.652500
vt 0.945600 0.652400
vt 0.947000 0.652800
vt 0.924400 0.650900
vt 0.948600 0.547600
vt 0.944700 0.546700
vt 0.945300 0.545500
vt 0.949300 0.546200
vt 0.949800 0.547300
vt 0.944200 0.546000
vt 0.913000 0.672100
vt 0.909100 0.672500
vt 0.906300 0.660200
vt 0.916100 0.657600
vt 0.903800 0.660500
vt 0.907900 0.672700
vt 0.894200 0.650900
vt 0.896200 0.651600
vt 0.891300 0.663500
vt 0.890500 0.663200
vt 0.884400 0.648000
vt 0.886600 0.662400
vt 0.882100 0.647600
vt 0.885300 0.662500
vt 0.914000 0.671500
vt 0.918200 0.656900
vt 0.905500 0.632900
vt 0.916900 0.632000
vt 0.902600 0.633100
vt 0.895700 0.623900
vt 0.898400 0.624300
vt 0.884100 0.622400
vt 0.881100 0.622300
vt 0.919900 0.631700
vt 0.906200 0.565800
vt 0.912100 0.566100
vt 0.904600 0.566300
vt 0.895500 0.557700
vt 0.897000 0.557400
vt 0.889500 0.557600
vt 0.888100 0.557100
vt 0.913600 0.566400
vt 0.886600 0.662400
vt 0.890500 0.663200
vt 0.889800 0.664500
vt 0.885800 0.663800
vt 0.885400 0.662700
vt 0.890900 0.664000
vt 0.904500 0.151800
vt 0.893600 0.148500
vt 0.904500 0.136300
vt 0.915300 0.146200
vt 0.920000 0.134800
vt 0.915600 0.124200
vt 0.904500 0.120800
vt 0.893600 0.126600
vt 0.889100 0.137800
vn 0.0614 0.9792 0.1936
vn -0.4056 0.9065 0.1174
vn -0.3649 0.8461 0.3885
vn -0.0054 0.8823 0.4707
vn -0.9040 0.3831 0.1897
vn -0.9899 -0.0051 0.1420
vn -0.8934 0.0803 0.4420
vn -0.8252 0.3516 0.4421
vn -0.9246 -0.3718 0.0832
vn -0.8434 -0.3611 0.3979
vn -0.3903 -0.8945 0.2181
vn -0.0136 -0.9805 0.1960
vn -0.0871 -0.8863 0.4549
vn -0.3536 -0.8172 0.4551
vn 0.3553 -0.8416 0.4068
vn 0.3992 -0.9071 0.1331
vn 0.8920 -0.0815 0.4447
vn 0.8198 -0.3539 0.4502
vn 0.9021 -0.3836 0.1979
vn 0.9900 0.0065 0.1408
vn 0.8466 0.3610 0.3912
vn 0.9238 0.3749 0.0782
vn 0.3557 0.8503 0.3878
vn 0.3874 0.9091 0.1532
vn -0.1476 0.9882 0.0418
vn -0.4261 0.9044 0.0235
vn -0.9296 0.3678 -0.0251
vn -0.9901 -0.1366 -0.0329
vn -0.9402 -0.3406 -0.0033
vn -0.4131 -0.9096 0.0450
vn 0.1399 -0.9888 0.0528
vn 0.4191 -0.9073 0.0336
vn 0.9306 -0.3654 -0.0236
vn 0.9896 0.1399 -0.0347
vn 0.9384 0.3456 -0.0074
vn 0.4059 0.9132 0.0352
vn -0.0047 0.7857 0.6186
vn -0.7821 0.0003 0.6231
vn -0.0046 -0.7819 0.6234
vn 0.7821 0.0003 0.6231
vn 0.7653 0.3610 -0.5329
vn 0.3710 -0.0207 -0.9284
vn 0.4885 0.2525 -0.8352
vn 0.8202 0.4525 -0.3500
vn 0.2924 0.0008 -0.9563
vn 0.1198 -0.2732 -0.9545
vn -0.7473 -0.5318 0.3984
vn -0.8137 -0.5770 0.0704
vn -0.7764 -0.6123 0.1495
vn -0.6351 -0.4954 0.5927
vn -0.4152 -0.3543 0.8379
vn -0.1925 -0.3468 0.9180
vn -0.1762 -0.2982 0.9381
vn 0.0229 -0.2773 0.9605
vn 0.9133 0.4071 -0.0161
vn 0.8829 0.4646 -0.0687
vn 0.3864 0.2820 -0.8782
vn 0.7566 0.4610 -0.4637
vn 0.2687 0.2085 -0.9404
vn -0.7546 -0.4895 0.4370
vn -0.8273 -0.5230 0.2051
vn -0.3967 -0.2547 0.8819
vn -0.2712 -0.1972 0.9421
vn 0.8230 0.4989 -0.2715
vn 0.2474 0.1846 -0.9512
vn 0.6959 0.4264 -0.5778
vn -0.0440 0.0513 -0.9977
vn -0.7028 -0.4515 0.5498
vn -0.7153 -0.4708 0.5164
vn -0.2684 -0.1563 0.9505
vn -0.0144 0.0476 0.9988
vn 0.7312 0.4385 -0.5226
vn 0.4239 -0.8235 0.3771
vn 0.5042 -0.8183 0.2761
vn 0.4552 -0.8345 0.3105
vn 0.3809 -0.8211 0.4251
vn 0.4081 -0.7812 0.4724
vn 0.5039 -0.8186 0.2756
vn -0.7640 -0.3610 -0.5348
vn -0.3709 0.0210 -0.9284
vn -0.4884 -0.2524 -0.8353
vn -0.8194 -0.4527 -0.3516
vn -0.2920 -0.0005 -0.9564
vn -0.1204 0.2727 -0.9545
vn 0.7472 0.5319 0.3985
vn 0.8135 0.5772 0.0711
vn 0.7761 0.6126 0.1496
vn 0.6348 0.4956 0.5928
vn 0.4151 0.3543 0.8379
vn 0.1924 0.3469 0.9179
vn 0.1762 0.2982 0.9381
vn -0.0229 0.2773 0.9605
vn -0.9126 -0.4083 -0.0210
vn -0.8826 -0.4649 -0.0704
vn -0.3864 -0.2821 -0.8781
vn -0.7563 -0.4609 -0.4643
vn -0.2681 -0.2082 -0.9406
vn 0.7544 0.4894 0.4374
vn 0.8269 0.5229 0.2070
vn 0.3967 0.2547 0.8819
vn 0.2712 0.1972 0.9421
vn -0.8227 -0.4986 -0.2730
vn -0.2475 -0.1847 -0.9511
vn -0.6955 -0.4260 -0.5787
vn 0.0443 -0.0512 -0.9977
vn 0.7021 0.4511 0.5510
vn 0.7141 0.4702 0.5186
vn 0.2686 0.1564 0.9505
vn 0.0145 -0.0475 0.9988
vn -0.7305 -0.4379 -0.5241
vn -0.4253 0.8238 0.3749
vn -0.5065 0.8174 0.2745
vn -0.4572 0.8340 0.3090
vn -0.3820 0.8216 0.4231
vn -0.4091 0.7822 0.4698
vn -0.5068 0.8170 0.2750
vn -0.0034 -0.0101 -0.9999
vn -0.0000 -0.0079 -1.0000
vn -0.0000 -0.0049 -1.0000
vn -0.0061 -0.0043 -1.0000
vn -0.0016 -0.0000 -1.0000
vn 0.0000 -0.0035 -1.0000
vn 0.0016 0.0000 -1.0000
vn 0.0061 -0.0043 -1.0000
vn 0.0036 -0.0104 -0.9999
usemtl airplane
s 1
f 1/1/1 2/2/2 3/3/3
f 1/1/1 3/3/3 4/4/4
f 5/5/5 6/6/6 7/7/7
f 5/5/5 7/7/7 8/8/8
f 6/6/6 9/9/9 10/10/10
f 6/6/6 10/10/10 7/7/7
f 11/11/11 12/12/12 13/13/13
f 11/11/11 13/13/13 14/14/14
f 15/15/15 13/13/13 12/12/12
f 15/15/15 12/12/12 16/16/16
f 17/17/17 18/18/18 19/19/19
f 17/17/17 19/19/19 20/20/20
f 21/21/21 17/17/17 20/20/20
f 21/21/21 20/20/20 22/22/22
f 23/23/23 24/24/24 1/1/1
f 23/23/23 1/1/1 4/4/4
f 2/2/2 1/1/1 25/25/25
f 2/2/2 25/25/25 26/26/26
f 6/6/6 5/5/5 27/27/27
f 6/6/6 27/27/27 28/28/28
f 9/9/9 6/6/6 28/28/28
f 9/9/9 28/28/28 29/29/29
f 12/12/12 11/11/11 30/30/30
f 12/12/12 30/30/30 31/31/31
f 31/31/31 32/32/32 16/16/16
f 31/31/31 16/16/16 12/12/12
f 33/33/33 34/34/34 20/20/20
f 33/33/33 20/20/20 19/19/19
f 34/34/34 35/35/35 22/22/22
f 34/34/34 22/22/22 20/20/20
f 1/1/1 24/24/24 36/36/36
f 1/1/1 36/36/36 25/25/25
f 4/4/4 3/3/3 37/37/37
f 8/8/8 7/7/7 38/38/38
f 7/7/7 10/10/10 38/38/38
f 14/14/14 13/13/13 39/39/39
f 13/13/13 15/15/15 39/39/39
f 18/18/18 17/17/17 40/40/40
f 17/17/17 21/21/21 40/40/40
f 23/23/23 4/4/4 37/37/37
f 41/41/41 42/42/42 43/43/43
f 41/41/41 43/43/43 44/44/44
f 45/45/45 43/43/43 42/42/42
f 45/45/45 42/42/42 46/46/46
f 47/47/47 48/48/48 49/49/49
f 47/47/47 49/49/49 50/50/50
f 51/51/51 47/47/47 50/50/50
f 51/51/51 50/50/50 52/52/52
f 53/53/53 51/51/51 52/52/52
f 53/53/53 52/52/52 54/54/54
f 55/55/55 41/41/41 44/44/44
f 55/55/55 44/44/44 56/56/56
f 44/44/44 43/43/43 57/57/57
f 44/44/44 57/57/57 58/58/58
f 43/43/43 45/45/45 59/59/59
f 43/43/43 59/59/59 57/57/57
f 48/48/48 47/47/47 60/60/60
f 48/48/48 60/60/60 61/61/61
f 62/62/62 60/60/60 47/47/47
f 62/62/62 47/47/47 51/51/51
f 51/51/51 53/53/53 63/63/63
f 51/51/51 63/63/63 62/62/62
f 56/56/56 44/44/44 58/58/58
f 56/56/56 58/58/58 64/64/64
f 65/65/65 66/66/66 58/58/58
f 65/65/65 58/58/58 57/57/57
f 57/57/57 59/59/59 67/67/67
f 57/57/57 67/67/67 65/65/65
f 68/68/68 69/69/69 61/61/61
f 68/68/68 61/61/61 60/60/60
f 60/60/60 62/62/62 70/70/70
f 60/60/60 70/70/70 68/68/68
f 71/71/71 70/70/70 62/62/62
f 71/71/71 62/62/62 63/63/63
f 64/64/64 58/58/58 66/66/66
f 64/64/64 66/66/66 72/72/72
f 73/73/73 74/74/74 75/75/75
f 73/73/73 75/75/75 76/76/76
f 77/77/77 73/73/73 76/76/76
f 78/78/78 75/75/75 74/74/74
f 79/79/79 80/80/80 81/81/81
f 79/79/79 81/81/81 82/82/82
f 83/83/83 81/81/81 80/80/80
f 83/83/83 80/80/80 84/84/84
f 85/85/85 86/86/86 87/87/87
f 85/85/85 87/87/87 88/88/88
f 89/89/89 85/85/85 88/88/88
f 89/89/89 88/88/88 90/90/90
f 91/91/91 89/89/89 90/90/90
f 91/91/91 90/90/90 92/92/92
f 93/93/93 79/79/79 82/82/82
f 93/93/93 82/82/82 94/94/94
f 82/82/82 81/81/81 95/95/95
f 82/82/82 95/95/95 96/96/96
f 81/81/81 83/83/83 97/97/97
f 81/81/81 97/97/97 95/95/95
f 86/86/86 85/85/85 98/98/98
f 86/86/86 98/98/98 99/99/99
f 100/100/100 98/98/98 85/85/85
f 100/100/100 85/85/85 89/89/89
f 89/89/89 91/91/91 101/101/101
f 89/89/89 101/101/101 100/100/100
f 94/94/94 82/82/82 96/96/96
f 94/94/94 96/96/96 102/102/102
f 103/103/103 104/104/104 96/96/96
f 103/103/103 96/96/96 95/95/95
f 95/95/95 97/97/97 105/105/105
f 95/95/95 105/105/105 103/103/103
f 106/106/106 107/107/107 99/99/99
f 106/106/106 99/99/99 98/98/98
f 98/98/98 100/100/100 108/108/108
f 98/98/98 108/108/108 106/106/106
f 109/109/109 108/108/108 100/100/100
f 109/109/109 100/100/100 101/101/101
f 102/102/102 96/96/96 104/104/104
f 102/102/102 104/104/104 110/110/110
f 111/111/111 112/112/112 113/113/113
f 111/111/111 113/113/113 114/114/114
f 115/115/115 111/111/111 114/114/114
f 116/116/116 113/113/113 112/112/112
f 117/117/117 118/118/118 119/119/119
f 120/120/120 117/117/117 119/119/119
f 121/121/121 120/120/120 119/119/119
f 122/122/122 121/121/121 119/119/119
f 123/123/123 122/122/122 119/119/119
f 124/124/124 123/123/123 119/119/119
f 125/125/125 124/124/124 119/119/119
f 118/118/118 125/125/125 119/119/119
